<svg width="61" height="59" viewBox="0 0 61 59" fill="none" xmlns="http://www.w3.org/2000/svg">
<path d="M12.4998 2C4.49987 13.5 2 19.4994 5.99994 22.5C13.1551 27.8674 20.9997 15 27.4993 3.5C21 14.9995 18.0672 25.7551 24 27.5C32.5 30 40.557 12 43.9993 4.5C40.6576 12 33.5 22.9044 39 26.5C47.2435 31.8892 55.4993 12.5 58.9993 2" stroke="black" stroke-width="4" stroke-linecap="round" stroke-linejoin="round"/>
<circle cx="2.5" cy="39.5" r="2.5" fill="black"/>
<circle cx="56.5" cy="39.5" r="2.5" fill="black"/>
<path d="M11.2403 47.4872C13.8513 49.3399 14.6384 54.3028 9.70431 55.5891" stroke="black" stroke-width="3.5" stroke-linecap="round" stroke-linejoin="round"/>
<path d="M46.7966 47.4397C44.4734 50.5787 44.1181 53.1033 47.7562 55.3976" stroke="black" stroke-width="3.5" stroke-linecap="round" stroke-linejoin="round"/>
<path d="M14.0527 52.8341C23.2393 55.8101 31.3412 57.3461 44.0605 52.105" stroke="black" stroke-width="3.5" stroke-linecap="round" stroke-linejoin="round"/>
</svg>
