<svg width="279" height="258" viewBox="0 0 279 258" fill="none" xmlns="http://www.w3.org/2000/svg">
<g clip-path="url(#clip0)">
<path d="M208.37 257.84C205.84 257.84 203.26 256.82 201.83 255.8C195.84 251.55 193.77 249.74 190.38 243.92C174.6 248.21 151.38 253.01 126.55 253.01C101.7 253.01 80.2501 248.26 62.7401 238.88C54.6501 246.18 50.9201 247.41 47.3001 248.6L46.3801 248.91C44.5801 249.52 43.1301 249.81 41.8301 249.81C39.3901 249.81 37.3601 248.81 35.7801 246.85C34.3201 245.03 33.9201 242.52 34.7001 240.13C35.5901 237.41 37.8101 235.4 40.8001 234.6C46.8301 232.99 50.5001 230.93 51.6901 228.47C52.7801 226.22 51.9401 223.36 50.1301 219.19C49.4901 217.71 48.5901 216.51 47.5601 215.12C46.2801 213.4 44.8201 211.44 43.5701 208.59C42.3801 205.88 42.8601 202.12 46.0701 200.16C46.8601 199.68 47.7901 199.44 48.8401 199.44C51.2901 199.44 54.1301 200.78 56.0901 202.87C56.5401 203.35 57.0101 203.79 57.4701 204.24C60.6501 207.27 64.2501 210.69 66.7601 224.55C84.3501 233.54 104.95 238.09 128.02 238.09C128.02 238.09 128.02 238.09 128.03 238.09C147.34 238.09 167.61 234.92 188.31 228.68C191.21 222.16 197.83 212.97 199.95 211.31L200.3 211.03C201.59 209.98 203.75 208.23 206.72 208.23C207.45 208.23 208.17 208.34 208.88 208.56C211.59 209.39 213.35 212.68 213.06 216.38C212.82 219.38 210.77 221.74 209.12 223.64C208.56 224.28 208.03 224.89 207.65 225.43C202.11 233.23 203.34 236.92 207.12 240.35C207.82 240.99 208.57 241.6 209.3 242.19C212.6 244.9 216.72 248.27 214.56 253.96C213.59 256.42 211.34 257.84 208.37 257.84ZM245.05 200.09C244.59 200.09 244.13 200.05 243.67 199.98C236.29 198.8 232.71 193.93 233.61 186.26C234.11 181.93 239.5 176.43 244.83 176.43C245.04 176.43 245.24 176.44 245.45 176.45C255.34 177.24 255.93 185.35 256.13 188.01C256.32 190.64 254.94 193.97 252.6 196.48C250.44 198.81 247.76 200.09 245.05 200.09ZM11.2301 190.32C8.17011 190.32 5.16011 188.86 2.98011 186.3C0.620109 183.55 -0.409892 179.92 0.150108 176.36C0.610108 173.41 3.70011 168.61 8.88011 167.67C9.68011 167.52 10.4901 167.45 11.2701 167.45C14.5401 167.45 17.4801 168.7 19.5401 170.98C21.6501 173.31 22.6101 176.5 22.2601 179.94C21.6601 185.76 17.3201 190.02 11.7001 190.3C11.5401 190.32 11.3901 190.32 11.2301 190.32ZM125.15 135.66C111.78 135.66 100.53 128.18 95.7901 116.14C93.8801 111.3 94.5401 101.46 95.6701 91.1C95.5001 91.32 95.3301 91.53 95.1701 91.75C84.5101 106.1 69.4001 113.08 48.9601 113.08C47.2201 113.08 45.4101 113.03 43.5801 112.93C38.5801 112.66 33.7901 110.05 30.0901 105.59C25.4401 99.98 23.2401 92.28 24.2101 84.99C28.6701 51.37 39.4001 27.25 60.0601 4.34C62.6901 1.42 65.3101 0 68.0601 0C70.2501 0 72.3401 0.92 74.2801 2.75C76.4301 4.78 77.5601 7.18 77.5601 9.71C77.5601 12.26 76.4001 14.71 74.2001 16.78C59.0901 31.02 49.6301 49.31 44.4101 74.34C44.1001 75.84 43.7801 77.35 43.4601 78.85C42.5501 83.13 41.6101 87.55 40.8401 91.9C40.6201 93.12 40.7101 94.05 41.0701 94.5C41.4801 95.01 42.5601 95.34 44.0101 95.4C45.0001 95.44 45.9801 95.46 46.9601 95.46C63.2101 95.46 74.8901 89.75 82.6701 77.99C88.1801 69.66 93.7101 61.14 99.0601 52.89C105.21 43.41 111.57 33.6 117.95 24.03C120.63 20.01 124.21 15.94 128.88 11.61C130.47 10.13 133.19 9.61 135.04 9.61C136.86 9.61 138.26 10.08 139.18 11.02C141.39 13.25 143.59 17.14 143.5 20.81C143.42 24 141.95 26.99 140.65 29.62C140.42 30.09 140.19 30.55 139.97 31.02C137.84 35.52 135.58 40.04 133.39 44.42C128.89 53.44 124.24 62.76 120.52 72.19C117.49 79.88 115.74 88.37 114.04 96.58C113.56 98.88 113.09 101.19 112.59 103.47C111.78 107.18 111.9 112.29 117.11 115.57C119.26 116.92 121.63 117.64 123.96 117.64C126.45 117.64 128.78 116.83 130.69 115.3C137.87 109.53 144.44 102.59 150.8 95.89L152.38 94.23C166.05 79.84 174.63 61.75 182.92 44.24C184.31 41.3 185.71 38.36 187.12 35.44L187.91 33.8C190.57 28.29 193.31 22.59 197.07 17.6C199.17 14.81 203.8 13.14 207.06 13.14C208.03 13.14 208.92 13.28 209.69 13.56C214.37 15.23 217.94 20.16 215.37 27.43C209.56 43.83 202.95 61.19 191.63 77.32C190.52 78.89 189.52 80.27 188.61 81.52C184.46 87.21 182.37 90.07 180.24 98.53C179.32 102.2 179.68 105.25 181.31 107.6C182.9 109.89 185.3 110.91 186.87 111.08C187.74 111.18 188.61 111.22 189.46 111.22C196.96 111.22 204.02 107.54 211.04 99.97C230.66 78.81 243.01 53.01 253.05 30.49C256.09 23.68 259.57 16.47 264.34 7.13C265.19 5.46 268.03 2.47 270.63 2.47C271.09 2.47 271.53 2.55 271.94 2.72C274.42 3.71 277.61 5.93 278.45 8.92C279.5 12.69 278.24 16.74 277.64 18.31C266.84 46.92 254.55 77.02 233.69 102.82C224.1 114.68 214.31 122.02 202.87 125.9C198.49 127.39 193.47 128.21 188.73 128.21C180.21 128.21 173.05 125.65 168.57 121C166.35 118.7 164.8 115.96 163.93 112.8C158.82 118.67 152.43 124.48 147.63 128.04C141.03 132.95 133.04 135.66 125.15 135.66Z" fill="black"/>
</g>
<defs>
<clipPath id="clip0">
<rect width="278.86" height="257.84" fill="white"/>
</clipPath>
</defs>
</svg>
