<svg width="63" height="59" viewBox="0 0 63 59" fill="none" xmlns="http://www.w3.org/2000/svg">
<path d="M14.4998 2C6.49987 13.5 4 19.4994 7.99994 22.5C15.1551 27.8674 22.9997 15 29.4993 3.5C23 14.9995 20.0672 25.7551 26 27.5C34.5 30 42.557 12 45.9993 4.5C42.6576 12 35.5 22.9044 41 26.5C49.2435 31.8892 57.4993 12.5 60.9993 2" stroke="black" stroke-width="4" stroke-linecap="round" stroke-linejoin="round"/>
<circle cx="2.5" cy="39.5" r="2.5" fill="black"/>
<circle cx="56.5" cy="39.5" r="2.5" fill="black"/>
<path d="M12.5 46.5C15 48.5 15.5 53.5 10.5 54.5" stroke="black" stroke-width="3.5" stroke-linecap="round" stroke-linejoin="round"/>
<path d="M48.0001 48.5C45.5 51.5 45 54 48.4999 56.5" stroke="black" stroke-width="3.5" stroke-linecap="round" stroke-linejoin="round"/>
<path d="M15 52C24 55.5 32 57.5 45 53" stroke="black" stroke-width="3.5" stroke-linecap="round" stroke-linejoin="round"/>
</svg>
